<svg width="129" height="144" viewBox="0 0 129 144" fill="none" xmlns="http://www.w3.org/2000/svg">
<path d="M1.33819 29.3607L58.2908 30.2408L57.609 68.5581L0.656405 67.678L1.33819 29.3607Z" fill="#FF3E3E"/>
<path opacity="0.3" d="M23.9141 29.7048L58.3472 30.2369L57.6654 68.5543L23.2323 68.0222L23.9141 29.7048Z" fill="white"/>
<path opacity="0.3" d="M18.7254 32.2867L28.6416 32.4716L28.5863 35.0476L18.6701 34.8627L18.7254 32.2867Z" fill="white"/>
<path opacity="0.3" d="M18.4308 62.0829L28.3457 62.2361L28.2999 64.8117L18.385 64.6585L18.4308 62.0829Z" fill="white"/>
<path d="M11.8205 53.8874C8.60647 53.8874 6.00101 51.14 6.00101 47.751C6.00101 44.3619 8.60647 41.6146 11.8205 41.6146C15.0344 41.6146 17.6399 44.3619 17.6399 47.751C17.6399 51.14 15.0344 53.8874 11.8205 53.8874Z" stroke="white" stroke-miterlimit="10"/>
<path d="M11.5786 42.5484V43.5788" stroke="white" stroke-linecap="round" stroke-linejoin="round"/>
<path d="M11.3269 51.9876V53.018" stroke="white" stroke-linecap="round" stroke-linejoin="round"/>
<path d="M16.7266 47.5486H15.616" stroke="white" stroke-linecap="round" stroke-linejoin="round"/>
<path d="M7.8125 47.5532H6.70195" stroke="white" stroke-linecap="round" stroke-linejoin="round"/>
<path d="M11.5835 47.5486L11.579 44.3746" stroke="white" stroke-width="0.5" stroke-linecap="round" stroke-linejoin="round"/>
<path d="M11.3665 47.7556L8.95772 50.0004" stroke="white" stroke-width="0.5" stroke-linecap="round" stroke-linejoin="round"/>
<path d="M11.0456 47.5532C11.0456 47.6523 11.0771 47.7493 11.1363 47.8317C11.1954 47.9142 11.2794 47.9785 11.3777 48.0164C11.476 48.0544 11.5842 48.0643 11.6885 48.045C11.7929 48.0256 11.8888 47.9779 11.964 47.9077C12.0392 47.8376 12.0905 47.7483 12.1112 47.651C12.132 47.5537 12.1213 47.4529 12.0806 47.3613C12.0399 47.2697 11.9709 47.1914 11.8825 47.1363C11.794 47.0812 11.69 47.0518 11.5836 47.0518C11.5128 47.0512 11.4425 47.0637 11.3769 47.0887C11.3114 47.1137 11.2518 47.1506 11.2017 47.1973C11.1516 47.2439 11.112 47.2995 11.0852 47.3606C11.0584 47.4217 11.0449 47.4872 11.0456 47.5532Z" fill="white"/>
<path opacity="0.3" d="M11.8204 55.5112C7.5651 55.5112 4.11546 52.0368 4.11546 47.751C4.11546 43.4651 7.5651 39.9908 11.8204 39.9908C16.0758 39.9908 19.5254 43.4651 19.5254 47.751C19.5254 52.0368 16.0758 55.5112 11.8204 55.5112Z" fill="white"/>
<path d="M75.8096 115.049C74.9507 115.661 57.7096 113.931 62.1667 85.425C62.1667 85.425 53.9879 87.3616 53.1093 87.2328C53.1093 87.2328 41.1101 104.377 49.8467 112.869C58.5832 121.36 71.6042 121.88 71.6042 121.88L75.8096 115.049Z" fill="#FF3E3E"/>
<path opacity="0.3" d="M75.8096 115.049C74.9507 115.661 57.7096 113.931 62.1667 85.425C62.1667 85.425 53.9879 87.3616 53.1093 87.2328C53.1093 87.2328 41.1101 104.377 49.8467 112.869C58.5832 121.36 71.6042 121.88 71.6042 121.88L75.8096 115.049Z" fill="black"/>
<path d="M56.7025 89.8364C56.6581 89.8364 61.52 89.9238 63.1488 88.0378C64.7777 86.1518 65.8784 82.78 62.9168 80.48C59.9553 78.18 42.5661 68.244 34.3774 67.462C26.1887 66.68 17.4225 71.602 17.4225 71.602L28.1433 78.9896L51.2286 84.1968L56.7025 89.8364Z" fill="#263238"/>
<path d="M72.4236 110.559L71.9744 114.681L66.6634 114.262L67.463 110.026L72.4236 110.559Z" fill="#FFC3BD"/>
<path d="M73.455 114.382L65.7501 114.281L65.2022 117.906C65.2022 117.906 72.4185 117.998 75.385 117.63C78.3514 117.262 77.8875 115.822 77.8875 115.822C77.8875 115.822 74.4126 115.9 73.455 114.382Z" fill="#263238"/>
<path d="M6.21426 124.815C5.0638 114.278 11.8898 105 21.4605 104.093C31.0313 103.185 39.7225 110.991 40.873 121.528C42.0234 132.065 35.1974 141.343 25.6267 142.25C16.056 143.158 7.36472 135.352 6.21426 124.815Z" fill="#263238"/>
<path d="M35.6511 64.5134C35.6511 64.5134 34.8515 81.6116 45.5229 82.0992C56.1944 82.5868 67.6605 81.4966 67.6605 81.4966L64.2991 112.22L74.3042 112.795C74.3042 112.795 81.486 86.7314 82.6163 80.181C83.7466 73.6306 82.7643 68.9984 75.3457 66.0912C67.927 63.184 35.6511 64.5134 35.6511 64.5134Z" fill="#FF3E3E"/>
<path d="M95.3704 118.761L82.078 82.78L64.3087 64.4996C64.3087 64.4996 79.8174 64.5548 87.2706 68.5476C94.7238 72.5404 95.0002 77.3382 96.3675 83.0468C97.7347 88.7554 103.219 115.776 103.219 115.776L95.3704 118.761Z" fill="#FF3E3E"/>
<path opacity="0.7" d="M35.6509 64.5134C35.6509 64.5134 52.1664 63.828 64.2791 64.5134C64.2791 64.5134 79.7877 64.5686 87.241 68.5614C94.6942 72.5542 95.0002 77.3382 96.3675 83.0468C97.7347 88.7554 103.219 115.776 103.219 115.776L95.3704 118.761L82.078 82.78C79.842 92.7528 74.304 112.777 74.304 112.777L64.2989 112.22L67.6652 81.515C67.6652 81.515 56.204 82.6052 45.5276 82.1176C34.8512 81.63 35.6509 64.5134 35.6509 64.5134Z" fill="black"/>
<path d="M62.917 36.78L69.0523 37.4746C69.0523 37.4746 70.1185 47.9856 71.1106 50.028C71.1106 50.028 89.9806 52.443 97.7102 52.236L101.634 54.72L101.772 59.0394L97.9274 59.1452L96.6885 56.4082C96.6885 56.4082 94.0922 56.3024 93.49 54.9408C93.49 54.9408 73.4403 59.4534 66.0562 54.3014C66.0463 54.306 61.5942 48.211 62.917 36.78Z" fill="#FFC3BD"/>
<path d="M45.3353 8.6326C45.3353 8.6326 43.4152 10.9326 44.1457 12.9244C44.3473 13.4924 44.7026 14.0025 45.1772 14.4053C45.6519 14.8082 46.2299 15.0903 46.8555 15.2244C46.8555 15.2244 47.2158 18.4122 49.2346 18.5042C51.2534 18.5962 50.5772 11.48 50.5772 11.48L45.3353 8.6326Z" fill="#263238"/>
<path d="M60.8785 64.5916L62.226 44.0434L70.5874 38.8638C70.5874 38.8638 67.8529 29.88 62.6208 28.3574C57.3888 26.8348 45.977 23.3434 39.0568 25.0776C32.1367 26.8118 32.9313 34.4202 34.1209 40.0644L35.4536 40.3588C35.4536 40.3588 35.6609 62.5998 35.6708 64.5134L60.8785 64.5916Z" fill="#263238"/>
<path d="M45.8338 26.3472C48.5732 28.8174 54.1607 30.2894 55.7056 29.0612C57.2505 27.833 55.3009 26.706 53.8497 25.3168C53.0649 24.5532 53.0896 23.1226 53.2722 21.9818C53.3684 21.407 53.5103 20.8396 53.6967 20.2844C58.8251 20.0222 60.9525 17.7866 61.1647 13.8444C61.377 9.90219 59.4618 5.32519 59.4618 5.32519L55.8389 2.44559C55.8389 2.44559 50.903 3.13559 46.9542 5.66559C44.6047 7.15599 45.3007 10.0908 46.2731 12.2574C46.685 13.1796 47.1804 14.0676 47.7538 14.9116C48.3067 20.3074 45.8338 26.3472 45.8338 26.3472Z" fill="#FFC3BD"/>
<path d="M58.3118 14.93C58.3118 14.93 56.3374 15.0174 55.4736 13.8766" stroke="#263238" stroke-linecap="round" stroke-linejoin="round"/>
<path d="M55.1677 10.2748C55.1677 10.6244 55.3948 10.9004 55.6613 10.8958C55.9278 10.8912 56.1203 10.6014 56.1105 10.2518C56.1006 9.9022 55.8834 9.62619 55.6169 9.63079C55.3503 9.63539 55.1529 9.9252 55.1677 10.2748Z" fill="#263238"/>
<path d="M59.6692 10.3852C59.6692 10.7348 59.8962 11.0108 60.1628 11.0062C60.4293 11.0016 60.6218 10.7118 60.6119 10.3622C60.6021 10.0126 60.3849 9.73661 60.1183 9.74121C59.8518 9.74581 59.6544 10.0402 59.6692 10.3852Z" fill="#263238"/>
<path d="M58.1043 13.2418L58.3067 10.422L59.7529 13.0992C59.5272 13.278 59.2478 13.3876 58.9528 13.4131C58.6578 13.4387 58.3615 13.3788 58.1043 13.2418Z" fill="#ED847E"/>
<path d="M55.4045 8.06679C55.0259 7.96985 54.6227 8.00125 54.2666 8.15539C53.9104 8.30954 53.6246 8.57644 53.4598 8.90859" stroke="#263238" stroke-linecap="round" stroke-linejoin="round"/>
<path d="M61.061 8.58661C61.061 8.58661 60.1528 7.66661 59.0867 7.90121" stroke="#263238" stroke-linecap="round" stroke-linejoin="round"/>
<path d="M46.2386 12.2574C51.8853 12.446 52.5862 6.47981 52.5862 6.47981C55.3799 7.85981 59.4421 5.32981 59.4421 5.32981L55.8192 2.44101C55.8192 2.44101 50.8833 3.14021 46.9345 5.66101C44.5702 7.15601 45.2662 10.1 46.2386 12.2574Z" fill="#263238"/>
<path d="M61.2584 7.07782C61.2584 7.07782 64.1805 5.26542 62.8922 3.95902C61.6039 2.65262 53.7114 5.13662 47.813 8.18183C47.813 8.18183 61.3226 -0.240788 64.9949 2.42262C68.0305 4.62602 61.2979 7.68503 61.5003 7.68043L61.2584 7.07782Z" fill="#FF3E3E"/>
<path d="M44.7776 6.4614C44.7859 7.41524 44.9799 8.35975 45.3502 9.249L58.6179 3.269C58.0682 2.67748 57.4096 2.18211 56.6732 1.8062C55.8879 1.38761 55.0341 1.09233 54.146 0.9322C53.2041 0.764397 52.2401 0.733365 51.2881 0.840201C46.4361 1.36 44.7529 4.8376 44.7776 6.4614Z" fill="#FF3E3E"/>
<path d="M103.535 67.3562C103.535 67.3562 118.52 86.6762 106.18 116.415" stroke="#263238" stroke-linecap="round" stroke-linejoin="round"/>
<path d="M83.7565 77.3934C83.7565 77.3934 83.7565 77.4302 83.7565 77.5038C83.7565 77.5774 83.7565 77.6188 83.7565 77.7016V77.7476C83.9348 79.6083 84.2648 81.4536 84.7437 83.2676C85.4249 85.9494 86.3282 88.5024 87.0735 90.554C90.2325 99.271 89.8672 108.664 89.8672 108.664C90.9136 107.45 92.8287 106.585 95.2227 105.978C103.939 103.747 118.737 104.943 118.737 104.943C121.64 95.453 120.603 80.5996 117.716 72.2828C114.828 63.966 106.822 65.8428 106.822 65.8428C106.822 65.8428 98.3718 66.0728 97.3105 65.967C95.3683 65.7475 93.4025 65.7846 91.4714 66.0774C84.9461 67.1906 83.3765 71.9976 83.7565 77.3934Z" fill="#FF3E3E"/>
<path d="M18.6961 113.6C33.5038 126.057 62.0877 127.363 83.3565 125.983L95.2718 106.005L100.099 97.914L84.5905 78.433L83.7711 77.4072C83.7711 77.4072 83.7711 77.444 83.7711 77.5176C83.7711 77.5912 83.7711 77.6326 83.7711 77.7154V77.7614C83.9834 81.2344 85.3556 109.106 74.3929 115.941L74.3041 116.001C72.8206 116.895 71.0995 117.385 69.3336 117.418C49.2197 117.961 49.7824 93.498 54.896 88.2586L19.9942 81.722C19.9942 81.722 13.1037 97.891 18.6961 113.6Z" fill="#FF3E3E"/>
<path d="M57.5171 82.9548C57.5171 82.9548 60.7896 85.4848 59.1015 88.8796C57.4134 92.2744 41.1397 85.6826 34.7329 84.482C28.3261 83.2814 20.9124 82.1084 17.7238 81.4966C14.5352 80.8848 14.8116 72.361 17.4178 71.6066C20.0239 70.8522 45.5524 75.0566 49.7875 77.3658C52.5839 78.9485 55.1772 80.8236 57.5171 82.9548Z" fill="#263238"/>
<path d="M49.3234 14.3642C49.6348 14.0517 49.8234 13.6501 49.8583 13.2248C49.8933 12.7996 49.7726 12.3759 49.5159 12.0228C48.7261 10.9188 47.1318 9.16622 45.6017 10.4772C43.4595 12.3172 47.117 15.6614 48.6323 14.8518C48.8862 14.7204 49.1188 14.5562 49.3234 14.3642Z" fill="#FFC3BD"/>
<path opacity="0.2" d="M61.2585 7.07782C61.2585 7.07782 64.1805 5.26542 62.8922 3.95902C62.3197 3.37942 60.6069 3.49902 58.292 4.11542C56.8033 4.4889 55.3452 4.96083 53.9286 5.52762C51.895 6.35102 49.7331 7.40443 47.813 8.18183C47.813 8.18183 61.3226 -0.240788 64.9949 2.42262C68.0305 4.62602 61.7175 7.48262 61.4954 7.67582L61.3868 7.30322L61.2585 7.07782Z" fill="black"/>
<path d="M59.8714 6.2912C59.8714 6.2912 62.833 6.75119 60.7895 9.72279L59.8714 6.2912Z" fill="#263238"/>
<path d="M57.0332 4.4788C57.0332 4.4788 61.5002 3.01601 62.744 3.84401C63.9879 4.67201 62.6848 6.2498 61.2633 7.064L60.1231 7.202L59.4518 5.316L57.7144 5.1182L57.0332 4.4788Z" fill="#263238"/>
<path opacity="0.3" d="M50.9474 2.22942L52.0185 3.70602L56.6731 1.82002C55.8879 1.40142 55.0341 1.10614 54.1459 0.946014L50.9474 2.22942Z" fill="white"/>
<path opacity="0.1" d="M51.9838 19.8796C52.2918 20.643 52.7338 21.3534 53.2918 21.9818C53.388 21.407 53.5299 20.8396 53.7163 20.2844C53.1178 20.2454 52.5313 20.1084 51.9838 19.8796Z" fill="black"/>
<path d="M96.2342 60.332C96.4317 63.5198 97.9125 66.128 99.7289 66.772C100.043 66.8848 100.38 66.9334 100.716 66.9146C102.957 66.795 104.586 63.6624 104.359 59.9226C104.132 56.1828 102.128 53.248 99.8868 53.3676C98.9737 53.4136 98.1691 53.961 97.5423 54.8396C96.6192 56.1 96.101 58.1148 96.2342 60.332Z" fill="#F5F5F5"/>
<path d="M96.2344 60.332C96.4318 63.5198 97.9126 66.128 99.729 66.772C101.802 66.6616 103.308 63.7682 103.095 60.332C102.883 56.8958 101.037 54.168 98.9639 54.2784C98.4298 54.3156 97.9243 54.5179 97.5276 54.8534C96.6194 56.1 96.1011 58.1148 96.2344 60.332Z" fill="white"/>
<path d="M16.2381 105.518C20.0536 103.02 34.8169 100.568 34.8169 100.568C43.7854 100.568 51.6582 108.089 52.7441 118.076C53.6326 126.199 49.7826 133.573 43.5781 136.936C43.5781 136.936 43.0599 137.138 42.1911 137.456C38.9038 138.665 30.5621 141.596 25.6311 142.24" fill="#263238"/>
<path opacity="0.3" d="M6.21426 124.815C5.0638 114.278 11.8898 105 21.4605 104.093C31.0313 103.185 39.7225 110.991 40.873 121.528C42.0234 132.065 35.1974 141.343 25.6267 142.25C16.056 143.158 7.36472 135.352 6.21426 124.815Z" fill="black"/>
<path d="M82.9477 124.202C81.7972 113.665 88.6232 104.387 98.1939 103.479C107.765 102.572 116.456 110.378 117.606 120.915C118.757 131.452 111.931 140.73 102.36 141.637C92.7894 142.545 84.0981 134.739 82.9477 124.202Z" fill="#263238"/>
<path d="M89.6302 106.994L98.4557 141.527C99.7432 141.721 101.053 141.757 102.35 141.632H102.449C104.142 141.228 103.387 141.665 105.085 141.14C109.404 139.811 115.677 137.46 115.677 137.46C122.326 134.447 126.082 127.119 125.169 118.747C124.063 108.604 116.255 101.028 107.064 101.649C107.064 101.649 102.701 102.399 98.2089 103.489C96.2345 103.949 94.2601 104.497 92.6362 105.067C91.561 105.604 90.5529 106.251 89.6302 106.994Z" fill="#263238"/>
<path opacity="0.3" d="M82.9469 124.18C83.9341 133.265 90.5334 140.317 98.4654 141.508C99.753 141.703 101.062 141.738 102.36 141.614H102.459C104.266 141.432 106.022 140.944 107.641 140.174C114.31 137.023 118.53 129.369 117.607 120.905C116.457 110.375 107.784 102.578 98.2186 103.471H98.194C96.2517 103.654 94.3668 104.19 92.646 105.049C91.5706 105.587 90.5625 106.235 89.64 106.981C84.9164 110.808 82.1671 117.229 82.9469 124.18Z" fill="black"/>
<path d="M85.3507 112.082C85.64 111.652 85.9704 111.247 86.3379 110.872C88.5442 108.066 93.5887 107.017 96.8908 107.266C99.4222 107.496 101.853 108.308 103.964 109.63C106.373 111.084 108.095 113.31 110.484 114.837C115.015 117.754 121.891 117.671 126.442 114.667C126.699 114.497 126.943 114.311 127.173 114.111C127.636 113.661 127.946 113.092 128.061 112.478C128.235 111.71 128.172 110.913 127.878 110.178C126.891 107.592 123.599 105.32 121.521 103.935C117.308 101.165 112.353 99.5395 107.207 99.2388C92.5324 98.2958 86.2737 109.975 85.3507 112.082Z" fill="#FF3E3E"/>
<path opacity="0.3" d="M86.3679 112.45C89.522 108.209 93.5694 107.017 96.8715 107.266C99.4029 107.496 101.833 108.308 103.945 109.63C106.353 111.084 108.076 113.31 110.465 114.837C114.996 117.754 121.872 117.671 126.423 114.667C126.679 114.497 126.924 114.311 127.153 114.111C127.617 113.661 127.926 113.092 128.042 112.478C128.216 111.71 128.153 110.913 127.859 110.178C126.334 111.82 121.892 115.776 115.875 113.858C108.372 111.443 106.541 104.267 98.5201 104.331C92.1479 104.4 88.2238 109 86.3679 112.45Z" fill="black"/>
<g opacity="0.3">
<path opacity="0.3" d="M119.374 102.67C117.233 101.253 114.825 100.224 112.276 99.639C109.724 99.0337 107.081 98.8316 104.457 99.041C101.838 99.276 99.2727 99.8841 96.8512 100.844L95.9529 101.212L95.0743 101.622C94.482 101.879 93.9242 102.201 93.3517 102.496C92.7791 102.79 92.251 103.153 91.7031 103.48C91.1552 103.807 90.6418 104.188 90.1186 104.552C92.2713 103.208 94.5691 102.078 96.9746 101.18C99.3754 100.282 101.905 99.7198 104.482 99.5102C107.054 99.2811 109.648 99.4364 112.167 99.9702C113.432 100.231 114.672 100.588 115.874 101.037C117.095 101.475 118.267 102.022 119.374 102.67Z" fill="black"/>
</g>
<g opacity="0.3">
<path opacity="0.3" d="M103.391 99.3814C104.007 97.4631 104.376 95.4835 104.492 93.4842C104.655 91.4924 104.689 89.4914 104.645 87.5042C104.601 85.517 104.453 83.5114 104.255 81.5242L103.895 78.5526C103.737 77.5636 103.599 76.5746 103.401 75.5902L103.85 81.5702L104.028 84.551C104.058 85.5446 104.122 86.5382 104.127 87.5318C104.211 89.519 104.171 91.5062 104.092 93.5118C104.058 94.5054 103.974 95.4944 103.865 96.4834C103.778 97.4584 103.62 98.4266 103.391 99.3814Z" fill="black"/>
</g>
<path opacity="0.3" d="M74.4175 115.9C84.7237 109.722 85.1334 93.7832 84.783 83.2676C84.7188 81.4598 84.6398 79.8176 84.5806 78.4054C84.4725 76.992 84.4725 75.5731 84.5806 74.1596C85.6221 66.9376 91.5452 66.0682 91.5452 66.0682H91.5205C84.9607 67.1906 83.391 71.9976 83.7711 77.3934C83.7711 77.3934 83.7711 77.4302 83.7711 77.5038C83.7711 77.5774 83.7711 77.6188 83.7711 77.7016V77.7476C83.9932 81.2206 85.3654 109.092 74.4175 115.9Z" fill="black"/>
<path opacity="0.2" d="M75.2568 61.4636C76.1206 62.3054 87.2906 60.148 89.2403 61.114C90.0646 61.5188 90.4249 62.954 91.2541 64.5272C93.5839 67.9772 96.8613 68.52 97.0637 68.5476C93.1545 65.7876 92.0636 59.1452 94.0034 54.9454C95.9433 50.7456 102.888 51.8358 103.283 51.96C102.099 51.4748 100.825 51.2077 99.5317 51.1734C95.7754 50.9894 91.1949 51.9738 89.9116 54.191C87.3054 58.7128 76.1305 57.6962 75.1038 58.883C74.0772 60.0698 74.3931 60.6218 75.2568 61.4636Z" fill="black"/>
<path d="M84.0031 57.4478C84.6821 58.6158 84.953 59.9521 84.778 61.2704L75.3159 62.264C74.8322 61.7423 74.4747 61.1296 74.2677 60.4676C74.0608 59.8056 74.0092 59.1098 74.1165 58.4276C74.1165 58.4276 83.4898 57.549 84.0031 57.4478Z" fill="#263238"/>
<path d="M112.735 57.1212C112.735 57.1212 113.678 55.2536 112.548 54.0714C115.075 53.8598 116.639 53.6114 118.268 53.3906C118.51 54.076 118.629 54.7338 117.775 55.778C116.921 56.8222 112.735 57.1212 112.735 57.1212Z" fill="#263238"/>
<path d="M117.992 68.8098C119.631 71.2984 121.032 75.282 121.156 81.6438" stroke="#FF3E3E" stroke-linecap="round" stroke-linejoin="round"/>
<path d="M112.597 64.7066C113.789 64.9643 114.885 65.5156 115.771 66.3028" stroke="#FF3E3E" stroke-linecap="round" stroke-linejoin="round"/>
<path d="M38.9877 40.7268L45.2168 41.4352C45.2168 41.4352 46.3027 52.1026 47.3097 54.1772C47.3097 54.1772 66.4659 56.6336 74.319 56.4174L78.3022 58.9382L78.4404 63.3266L74.5361 63.4324L73.2775 60.6724C73.2775 60.6724 70.6417 60.5666 70.0346 59.182C70.0346 59.182 49.6789 63.782 42.1812 58.538C42.1862 58.5196 37.66 52.3326 38.9877 40.7268Z" fill="#FFC3BD"/>
<path opacity="0.2" d="M89.7091 122.8C89.8868 128.587 93.954 133.168 98.7961 133.04C99.4469 133.021 100.092 132.918 100.711 132.731C104.591 131.581 107.385 127.317 107.232 122.326C107.079 117.496 104.221 113.503 100.464 112.395C99.7139 112.17 98.9277 112.066 98.1396 112.087C93.2975 112.22 89.5264 117.032 89.7091 122.8Z" fill="#FAFAFA"/>
<path d="M94.1662 122.8C94.3192 127.74 97.1278 131.802 100.711 132.745C104.591 131.595 107.385 127.331 107.232 122.34C107.079 117.51 104.221 113.517 100.464 112.409C96.7329 113.352 94.0132 117.685 94.1662 122.8Z" fill="#263238"/>
<path opacity="0.2" d="M13.6567 123.26C13.8393 129.047 17.9065 133.633 22.7437 133.5C23.3947 133.484 24.0398 133.38 24.6588 133.191C28.5434 132.041 31.3371 127.782 31.1792 122.786C31.0311 117.961 28.1732 113.963 24.417 112.855C23.6664 112.63 22.8802 112.526 22.0922 112.547C17.25 112.68 13.479 117.482 13.6567 123.26Z" fill="#FAFAFA"/>
<path d="M18.1138 123.26C18.2718 128.196 21.0754 132.258 24.6588 133.201C28.5434 132.051 31.3371 127.791 31.1792 122.795C31.0311 117.97 28.1732 113.973 24.417 112.864C20.6805 113.807 17.9559 118.14 18.1138 123.26Z" fill="#263238"/>
<path d="M6.02554 108.016C5.94164 113.706 15.236 117.473 30.789 119.847C34.9814 120.534 39.2658 120.58 43.4743 119.985C50.3846 118.922 53.7607 116.199 53.7607 116.199C53.7607 116.199 52.0036 96.534 34.6143 94.0408C22.7682 92.348 13.8539 96.8008 9.33261 101.599C7.20523 103.853 6.05022 106.194 6.02554 108.016Z" fill="#FF3E3E"/>
<path opacity="0.3" d="M6.02563 108.016C5.94173 113.706 15.236 117.473 30.7891 119.847C34.9815 120.534 39.2659 120.58 43.4744 119.985C42.729 114.644 39.3825 100.637 24.8364 99.1836C18.2371 98.5212 13.1432 99.7632 9.3327 101.599C7.20532 103.853 6.05032 106.194 6.02563 108.016Z" fill="black"/>
<g opacity="0.3">
<path opacity="0.3" d="M52.7539 116.286C52.4339 113.61 51.7489 110.982 50.7154 108.466C49.6991 105.925 48.2961 103.533 46.5495 101.364C45.6669 100.286 44.6751 99.2891 43.5879 98.3878C42.5106 97.4719 41.323 96.6754 40.0489 96.0142C37.5137 94.6818 34.7043 93.865 31.8059 93.6176C33.2262 93.8394 34.6233 94.1749 35.9817 94.6204C36.6678 94.8136 37.3144 95.1126 37.956 95.3656C38.5999 95.653 39.2276 95.9708 39.8366 96.3178C40.4585 96.649 41.0311 97.0492 41.6185 97.4218C42.2059 97.7944 42.7488 98.236 43.2671 98.7006C44.3211 99.5932 45.2813 100.577 46.1348 101.64C47.8687 103.767 49.282 106.106 50.3353 108.591C50.8822 109.828 51.3535 111.094 51.747 112.381C52.1658 113.663 52.502 114.967 52.7539 116.286Z" fill="black"/>
</g>
<path d="M76.0911 109.791L75.0644 113.039L64.2992 112.202L64.156 107.661L76.0911 109.791Z" fill="#FF3E3E"/>
</svg>
